#tb 0: 1/44100
#media_type 0: audio
#codec_id 0: pcm_s16le
#sample_rate 0: 44100
#channel_layout_name 0: stereo
0,          0,          0,     1024,     4096, 0x0308f764
0,       1024,       1024,     1024,     4096, 0x2374f29e
0,       2048,       2048,     1024,     4096, 0x1720e359
0,       3072,       3072,     1024,     4096, 0xcfbdffb7
0,       4096,       4096,     1024,     4096, 0x64ba10d4
0,       5120,       5120,     1024,     4096, 0x916d0149
0,       6144,       6144,     1024,     4096, 0x6afe1be3
0,       7168,       7168,     1024,     4096, 0xa4b424b3
0,       8192,       8192,     1024,     4096, 0x110835de
0,       9216,       9216,     1024,     4096, 0xd4e8155f
0,      10240,      10240,     1024,     4096, 0xe248cdd3
0,      11264,      11264,     1024,     4096, 0xaecce50b
0,      12288,      12288,     1024,     4096, 0x58570182
0,      13312,      13312,     1024,     4096, 0xf6a6e831
0,      14336,      14336,     1024,     4096, 0x49e7cc7f
0,      15360,      15360,     1024,     4096, 0x4b71e797
0,      16384,      16384,     1024,     4096, 0xf013e163
0,      17408,      17408,     1024,     4096, 0x367c1edd
0,      18432,      18432,     1024,     4096, 0x1f702398
0,      19456,      19456,     1024,     4096, 0x34f327ba
0,      20480,      20480,     1024,     4096, 0x98ab08db
0,      21504,      21504,     1024,     4096, 0xed8ff564
0,      22528,      22528,     1024,     4096, 0xed650a9e
0,      23552,      23552,     1024,     4096, 0xc7482a8b
0,      24576,      24576,     1024,     4096, 0x613d0a9e
0,      25600,      25600,     1024,     4096, 0x1bcb1c70
0,      26624,      26624,     1024,     4096, 0x730ef72c
0,      27648,      27648,     1024,     4096, 0x9419f985
0,      28672,      28672,     1024,     4096, 0xcdfe21ab
0,      29696,      29696,     1024,     4096, 0xee4936e3
0,      30720,      30720,     1024,     4096, 0xe866fa25
0,      31744,      31744,     1024,     4096, 0x847bf984
0,      32768,      32768,     1024,     4096, 0xcf43c022
0,      33792,      33792,     1024,     4096, 0xb35928dc
0,      34816,      34816,     1024,     4096, 0x127d20eb
0,      35840,      35840,     1024,     4096, 0xc96e2e8f
0,      36864,      36864,     1024,     4096, 0x00c62d76
0,      37888,      37888,     1024,     4096, 0x2d24145f
0,      38912,      38912,     1024,     4096, 0x30be5357
0,      39936,      39936,     1024,     4096, 0x2226ffc2
0,      40960,      40960,     1024,     4096, 0xf1a80349
0,      41984,      41984,     1024,     4096, 0xd6410d92
0,      43008,      43008,     1024,     4096, 0x723511eb
0,      44032,      44032,     1024,     4096, 0x20e50222
0,      45056,      45056,     1024,     4096, 0xe720f384
0,      46080,      46080,     1024,     4096, 0x424ce745
0,      47104,      47104,     1024,     4096, 0x822c17b7
0,      48128,      48128,     1024,     4096, 0x5189389b
0,      49152,      49152,     1024,     4096, 0xf4f73d70
0,      50176,      50176,     1024,     4096, 0x7f7b1d55
0,      51200,      51200,     1024,     4096, 0xa1273c8a
0,      52224,      52224,     1024,     4096, 0x5eb03d5f
0,      53248,      53248,     1024,     4096, 0x58ce0dea
0,      54272,      54272,     1024,     4096, 0x60f02a52
0,      55296,      55296,     1024,     4096, 0xd588166e
0,      56320,      56320,     1024,     4096, 0x2e7ff5e3
0,      57344,      57344,     1024,     4096, 0x4637f0da
0,      58368,      58368,     1024,     4096, 0x957605bd
0,      59392,      59392,     1024,     4096, 0xe2860aec
0,      60416,      60416,     1024,     4096, 0x856ede98
0,      61440,      61440,     1024,     4096, 0xe492fb12
0,      62464,      62464,     1024,     4096, 0x619df5f7
0,      63488,      63488,     1024,     4096, 0x0cfb85c6
0,      64512,      64512,     1024,     4096, 0xa4aa06ae
0,      65536,      65536,     1024,     4096, 0xa6420568
0,      66560,      66560,     1024,     4096, 0xfb9b0132
0,      67584,      67584,     1024,     4096, 0x0d85ce04
0,      68608,      68608,     1024,     4096, 0xbb5ac4f0
0,      69632,      69632,     1024,     4096, 0x58240d40
0,      70656,      70656,     1024,     4096, 0x81339369
0,      71680,      71680,     1024,     4096, 0x6104175c
0,      72704,      72704,     1024,     4096, 0x1dd05bca
0,      73728,      73728,     1024,     4096, 0x1283d12d
0,      74752,      74752,     1024,     4096, 0x2b287e13
0,      75776,      75776,     1024,     4096, 0xffb33316
0,      76800,      76800,     1024,     4096, 0x0abfe9d1
0,      77824,      77824,     1024,     4096, 0x3f0fdd64
0,      78848,      78848,     1024,     4096, 0x83dcdbcd
0,      79872,      79872,     7011,    28044, 0xbe4c4d5b
0,      86883,      86883,     4410,    17640, 0x2a82e1b1
0,      91293,      91293,     1024,     4096, 0xcf2507f8
0,      92317,      92317,     1024,     4096, 0xc9c704cf
0,      93341,      93341,     1024,     4096, 0x641d3590
0,      94365,      94365,     1024,     4096, 0xa21223f3
0,      95389,      95389,     1024,     4096, 0x7a33255e
0,      96413,      96413,     1024,     4096, 0xf7d101f2
0,      97437,      97437,     1024,     4096, 0x2dd0c87c
0,      98461,      98461,     1024,     4096, 0x9a85e4df
0,      99485,      99485,     1024,     4096, 0x26490a05
0,     100509,     100509,     1024,     4096, 0xa2dfe221
0,     101533,     101533,     1024,     4096, 0x5143ca55
0,     102557,     102557,     1024,     4096, 0x05eaf60a
0,     103581,     103581,     1024,     4096, 0x4f4becd9
0,     104605,     104605,     1024,     4096, 0x28f4337d
0,     105629,     105629,     1024,     4096, 0x743c1f53
0,     106653,     106653,     1024,     4096, 0xa26e03bf
0,     107677,     107677,     1024,     4096, 0xdb54011f
0,     108701,     108701,     1024,     4096, 0xadf8f120
0,     109725,     109725,     1024,     4096, 0x5992f28c
0,     110749,     110749,     1024,     4096, 0x405a4056
0,     111773,     111773,     1024,     4096, 0xd42c14bb
0,     112797,     112797,     1024,     4096, 0x19881ca1
0,     113821,     113821,     1024,     4096, 0x19e303c3
0,     114845,     114845,     1024,     4096, 0x923d12d1
0,     115869,     115869,     1024,     4096, 0xd785342e
0,     116893,     116893,     1024,     4096, 0xa76a072d
0,     117917,     117917,     1024,     4096, 0x8dda066a
0,     118941,     118941,     1024,     4096, 0xf584f243
0,     119965,     119965,     1024,     4096, 0xa37edc12
0,     120989,     120989,     1024,     4096, 0x774628c6
0,     122013,     122013,     1024,     4096, 0x4dba0469
0,     123037,     123037,     1024,     4096, 0x08134209
0,     124061,     124061,     6144,    24576, 0x12a89a2d
0,     130205,     130205,     4410,    17640, 0x0507ae1b
0,     134615,     134615,     1024,     4096, 0x24584f18
0,     135639,     135639,     1024,     4096, 0x67634c0e
0,     136663,     136663,     1024,     4096, 0x129ad4d7
0,     137687,     137687,     1024,     4096, 0x61bcc0c2
0,     138711,     138711,     1024,     4096, 0xf7a43754
0,     139735,     139735,     1024,     4096, 0xbb52bf89
0,     140759,     140759,     1024,     4096, 0xcc20d32d
0,     141783,     141783,     1024,     4096, 0x7b428daa
0,     142807,     142807,     1024,     4096, 0x67286dac
0,     143831,     143831,     1024,     4096, 0x0f0bf0b4
0,     144855,     144855,     1024,     4096, 0x87929187
0,     145879,     145879,     1024,     4096, 0x4557f357
0,     146903,     146903,     1024,     4096, 0x3710a602
0,     147927,     147927,     1024,     4096, 0x6b21b3c0
0,     148951,     148951,     1024,     4096, 0xf47b722e
0,     149975,     149975,     1024,     4096, 0xc197cb96
0,     150999,     150999,     1024,     4096, 0x36d29f19
0,     152023,     152023,     1024,     4096, 0x017695b4
0,     153047,     153047,     1024,     4096, 0x0bf6d901
0,     154071,     154071,     1024,     4096, 0x3b230ed9
0,     155095,     155095,     1024,     4096, 0xe6791b1e
0,     156119,     156119,     1024,     4096, 0xf83ee0a5
0,     157143,     157143,     1024,     4096, 0x6870c6e4
0,     158167,     158167,     1024,     4096, 0x737ba4b7
0,     159191,     159191,     1024,     4096, 0x70b39b1b
0,     160215,     160215,     1024,     4096, 0xac5e19a0
0,     161239,     161239,     1024,     4096, 0xb7089b52
0,     162263,     162263,     1024,     4096, 0x4eedb9c7
0,     163287,     163287,     1024,     4096, 0xc07cf6ec
0,     164311,     164311,     1024,     4096, 0xd0178d62
0,     165335,     165335,     1024,     4096, 0xf673cdc9
0,     166359,     166359,     1024,     4096, 0x007e9949
0,     167383,     167383,     1024,     4096, 0xac3344f6
0,     168407,     168407,     1024,     4096, 0x225965b3
0,     169431,     169431,     1024,     4096, 0x658a08bc
0,     170455,     170455,     1024,     4096, 0x1ece3e6e
0,     171479,     171479,     1024,     4096, 0x8283e533
0,     172503,     172503,     1024,     4096, 0xaa422b42
0,     173527,     173527,     1024,     4096, 0xe96dff05
0,     174551,     174551,     1024,     4096, 0x487ef354
0,     175575,     175575,     1024,     4096, 0xcfc74bf9
0,     176599,     176599,     1024,     4096, 0x7e46021a
0,     177623,     177623,     1024,     4096, 0xf86c9f70
0,     178647,     178647,     1024,     4096, 0x58d59290
0,     179671,     179671,     1024,     4096, 0xdbceb5ce
0,     180695,     180695,     1024,     4096, 0x5e1c17b2
0,     181719,     181719,     1024,     4096, 0x6621b87c
0,     182743,     182743,     1024,     4096, 0xab8ee110
0,     183767,     183767,     1024,     4096, 0x2f51758b
0,     184791,     184791,     1024,     4096, 0xb914587f
0,     185815,     185815,     1024,     4096, 0x160680da
0,     186839,     186839,     1024,     4096, 0x3678326d
0,     187863,     187863,     1024,     4096, 0xc2ec5cd2
0,     188887,     188887,     1024,     4096, 0x1946da85
0,     189911,     189911,     1024,     4096, 0xc6d31fac
0,     190935,     190935,     1024,     4096, 0x1db538fa
0,     191959,     191959,     1024,     4096, 0xbdbf6627
0,     192983,     192983,     1024,     4096, 0xbb9385c9
0,     194007,     194007,     1024,     4096, 0x7d4b0759
0,     195031,     195031,     1024,     4096, 0x41b86b62
0,     196055,     196055,     1024,     4096, 0x7713d539
0,     197079,     197079,     1024,     4096, 0x974d95a8
0,     198103,     198103,     1024,     4096, 0x034376e2
0,     199127,     199127,     1024,     4096, 0x982f23eb
0,     200151,     200151,     1024,     4096, 0x648bbb65
0,     201175,     201175,     1024,     4096, 0x7bb3b665
0,     202199,     202199,     1024,     4096, 0x56046095
0,     203223,     203223,     1024,     4096, 0x1dfdbe41
0,     204247,     204247,     1024,     4096, 0x15a8d325
0,     205271,     205271,     1024,     4096, 0x07b942be
0,     206295,     206295,     1024,     4096, 0x8a547298
0,     207319,     207319,     1024,     4096, 0xc72a84a2
0,     208343,     208343,     1024,     4096, 0x63512e7f
0,     209367,     209367,     1024,     4096, 0x38f2799e
0,     210391,     210391,     1024,     4096, 0x3d6a5f7b
0,     211415,     211415,     1024,     4096, 0xc045ca7f
0,     212439,     212439,     1024,     4096, 0x0c233523
0,     213463,     213463,     1024,     4096, 0x8ad75134
0,     214487,     214487,     1024,     4096, 0x1bd67cf6
0,     215511,     215511,     1024,     4096, 0xf7f68b4c
0,     216535,     216535,     1024,     4096, 0x25c9234e
0,     217559,     217559,     1024,     4096, 0x6ac5ba32
0,     218583,     218583,     1024,     4096, 0x2bd87395
0,     219607,     219607,     1024,     4096, 0xee381375
0,     220631,     220631,     1024,     4096, 0x103e1d9f
0,     221655,     221655,     1024,     4096, 0x38a6b33b
0,     222679,     222679,     1024,     4096, 0x7be5df21
0,     223703,     223703,     1024,     4096, 0xbf5c84f4
0,     224727,     224727,     1024,     4096, 0xb10f013b
0,     225751,     225751,     1024,     4096, 0xdaddebd2
0,     226775,     226775,     1024,     4096, 0xfb4e3bca
0,     227799,     227799,     1024,     4096, 0xb1840e24
0,     228823,     228823,     1024,     4096, 0xb8e5b556
0,     229847,     229847,     1024,     4096, 0x13dcd4b4
0,     230871,     230871,     1024,     4096, 0xab75dae0
0,     231895,     231895,     1024,     4096, 0x31685307
0,     232919,     232919,     1024,     4096, 0x77240d4f
0,     233943,     233943,     1024,     4096, 0x52abbde7
0,     234967,     234967,     1024,     4096, 0x5e7617fd
0,     235991,     235991,     1024,     4096, 0x00fccb1b
0,     237015,     237015,     1024,     4096, 0x851f23d2
0,     238039,     238039,     1024,     4096, 0xba1eadfc
0,     239063,     239063,     1024,     4096, 0xbffaba2a
0,     240087,     240087,     1024,     4096, 0xbcb90353
0,     241111,     241111,     1024,     4096, 0x2d5ad9bb
0,     242135,     242135,     1024,     4096, 0x975fa225
0,     243159,     243159,     1024,     4096, 0x2e67dd0a
0,     244183,     244183,     1024,     4096, 0xb21f759f
0,     245207,     245207,     1024,     4096, 0x61c2c057
0,     246231,     246231,     1024,     4096, 0x57999526
0,     247255,     247255,     1024,     4096, 0x5e6911c2
0,     248279,     248279,     1024,     4096, 0x788fde7f
0,     249303,     249303,     1024,     4096, 0x16ad46fe
0,     250327,     250327,     1024,     4096, 0x815dc6a4
0,     251351,     251351,     1024,     4096, 0x619d11e4
0,     252375,     252375,     1024,     4096, 0xcabc3fe3
0,     253399,     253399,     1024,     4096, 0x787ff0c5
0,     254423,     254423,     1024,     4096, 0xed39bb9e
0,     255447,     255447,     1024,     4096, 0x31db4c80
0,     256471,     256471,     1024,     4096, 0x9ed8d3cf
0,     257495,     257495,     1024,     4096, 0xedc4b94e
0,     258519,     258519,     1024,     4096, 0x37e62c81
0,     259543,     259543,     1024,     4096, 0x38b7e43c
0,     260567,     260567,     1024,     4096, 0xf5d6d263
0,     261591,     261591,     1024,     4096, 0x91f449fd
0,     262615,     262615,     1024,     4096, 0x59507ccc
0,     263639,     263639,     1024,     4096, 0x6b8476d0
0,     264663,     264663,     1024,     4096, 0x1781ebdd
0,     265687,     265687,     1024,     4096, 0x00f91d3b
0,     266711,     266711,     1024,     4096, 0x658dd2de
0,     267735,     267735,     1024,     4096, 0xb7c1e751
0,     268759,     268759,     1024,     4096, 0x2d1fc090
0,     269783,     269783,     1024,     4096, 0xb491886c
0,     270807,     270807,     1024,     4096, 0xc38bee3b
0,     271831,     271831,     1024,     4096, 0xdb659fde
0,     272855,     272855,     1024,     4096, 0x49dd353f
0,     273879,     273879,     1024,     4096, 0x2ea590de
0,     274903,     274903,     1024,     4096, 0x7f50fb83
0,     275927,     275927,     1024,     4096, 0xd6f1d868
0,     276951,     276951,     1024,     4096, 0x3f131031
0,     277975,     277975,     1024,     4096, 0x391bfaae
0,     278999,     278999,     1024,     4096, 0x25ce6430
0,     280023,     280023,     1024,     4096, 0xa9df0c3b
0,     281047,     281047,     1024,     4096, 0xdda72edc
0,     282071,     282071,     1024,     4096, 0x698b6f46
0,     283095,     283095,     1024,     4096, 0xe1cb162f
0,     284119,     284119,     1024,     4096, 0x3e4e4271
0,     285143,     285143,     1024,     4096, 0x65465447
0,     286167,     286167,     1024,     4096, 0x12bee000
0,     287191,     287191,     1024,     4096, 0xbcd88060
0,     288215,     288215,     1024,     4096, 0x28dc3b68
0,     289239,     289239,     1024,     4096, 0x459bbdb4
0,     290263,     290263,     1024,     4096, 0x32b53bf7
0,     291287,     291287,     1024,     4096, 0x9734c9f0
0,     292311,     292311,     1024,     4096, 0x81689a19
0,     293335,     293335,     1024,     4096, 0x1670ae6f
0,     294359,     294359,     1024,     4096, 0xc444752d
0,     295383,     295383,     1024,     4096, 0x6d3c2ede
0,     296407,     296407,     1024,     4096, 0xef221663
0,     297431,     297431,     1024,     4096, 0xba36f279
0,     298455,     298455,     1024,     4096, 0xcd142c50
0,     299479,     299479,     1024,     4096, 0xb49829f2
0,     300503,     300503,     1024,     4096, 0x65f7d11e
0,     301527,     301527,     1024,     4096, 0x6cee90f8
0,     302551,     302551,     1024,     4096, 0x495c9386
0,     303575,     303575,     1024,     4096, 0x40342f77
0,     304599,     304599,     1024,     4096, 0x477f0f82
0,     305623,     305623,     1024,     4096, 0x6a010432
0,     306647,     306647,     1024,     4096, 0x3c26f30b
0,     307671,     307671,     1024,     4096, 0xa00c7cd7
0,     308695,     308695,     1024,     4096, 0x0bb9f8b4
0,     309719,     309719,     1024,     4096, 0xa1205882
0,     310743,     310743,     1024,     4096, 0xd2160da6
0,     311767,     311767,     1024,     4096, 0xd245d932
0,     312791,     312791,     1024,     4096, 0x14cb69eb
0,     313815,     313815,     1024,     4096, 0xe4d45d28
0,     314839,     314839,     1024,     4096, 0x8a6d4ad5
0,     315863,     315863,     1024,     4096, 0x4bafad04
0,     316887,     316887,     1024,     4096, 0xe0f37ad5
0,     317911,     317911,     1024,     4096, 0x86022408
0,     318935,     318935,     1024,     4096, 0x8261182a
0,     319959,     319959,     1024,     4096, 0x82e50cc9
0,     320983,     320983,     1024,     4096, 0xb4b751eb
0,     322007,     322007,     1024,     4096, 0xee16350b
0,     323031,     323031,     1024,     4096, 0x97294326
0,     324055,     324055,     1024,     4096, 0x92d81971
0,     325079,     325079,     1024,     4096, 0x4b544c58
0,     326103,     326103,     1024,     4096, 0xcbcd12e5
0,     327127,     327127,     1024,     4096, 0x004e46ac
0,     328151,     328151,     1024,     4096, 0xb7cf84ff
0,     329175,     329175,     1024,     4096, 0xf0787c06
0,     330199,     330199,     1024,     4096, 0x91336329
0,     331223,     331223,     1024,     4096, 0x81861fa1
0,     332247,     332247,     1024,     4096, 0x8ce0d254
0,     333271,     333271,     1024,     4096, 0x89a0cde4
0,     334295,     334295,     1024,     4096, 0x3e8c2f6e
0,     335319,     335319,     1024,     4096, 0x9afe3808
0,     336343,     336343,     1024,     4096, 0xdef437fe
0,     337367,     337367,     1024,     4096, 0xe11745a4
0,     338391,     338391,     1024,     4096, 0x35923d7b
0,     339415,     339415,     1024,     4096, 0xf117d25f
0,     340439,     340439,     1024,     4096, 0x53a1c918
0,     341463,     341463,     1024,     4096, 0x582b37ea
0,     342487,     342487,     1024,     4096, 0x96c86aa5
0,     343511,     343511,     1024,     4096, 0x0dafb51f
0,     344535,     344535,     1024,     4096, 0xe1d012ce
0,     345559,     345559,     1024,     4096, 0x5cc4c625
0,     346583,     346583,     1024,     4096, 0x60a9e4a5
0,     347607,     347607,     1024,     4096, 0xace5fa03
0,     348631,     348631,     1024,     4096, 0x56900976
0,     349655,     349655,     1024,     4096, 0x15bf4ef3
0,     350679,     350679,     1024,     4096, 0xfdc8bb49
0,     351703,     351703,     1024,     4096, 0xbfc9764c
0,     352727,     352727,     1024,     4096, 0x5c756721
0,     353751,     353751,     1024,     4096, 0x51ff11d7
0,     354775,     354775,     1024,     4096, 0x8835c98c
0,     355799,     355799,     1024,     4096, 0x98e0f992
0,     356823,     356823,     1024,     4096, 0x44cf2e39
0,     357847,     357847,     1024,     4096, 0xdab3e355
0,     358871,     358871,     1024,     4096, 0x59855b9b
